<svg width="181" height="192" viewBox="0 0 181 192" fill="none" xmlns="http://www.w3.org/2000/svg">
<g clip-path="url(#clip0_18201_26)">
<path d="M180.558 65.6586C180.729 65.2264 180.983 64.8319 181.307 64.4974C181.742 64.034 182.209 63.6017 182.704 63.2034C183.285 62.7506 183.891 62.3298 184.518 61.9427C185.159 61.5364 185.826 61.1707 186.514 60.8478C187.146 60.5339 187.802 60.2731 188.477 60.0681C189.014 59.8882 189.575 59.7876 190.141 59.7695C190.282 59.7732 190.419 59.8132 190.54 59.8857C190.692 59.9581 190.833 60.0532 190.956 60.1677C191.09 60.2844 191.207 60.4183 191.305 60.5658C191.396 60.6859 191.448 60.8304 191.455 60.9805C191.409 61.3071 191.301 61.6221 191.139 61.9095C190.923 62.374 190.657 62.9048 190.341 63.5684C190.024 64.2319 189.692 64.7794 189.309 65.4429C188.926 66.1065 188.577 66.7037 188.261 67.2677L187.479 68.7441C187.334 68.9824 187.222 69.2391 187.146 69.5072C187.144 69.5384 187.148 69.5697 187.159 69.599C187.17 69.6283 187.187 69.6549 187.209 69.677C187.231 69.6991 187.258 69.7161 187.287 69.7269C187.317 69.7377 187.348 69.742 187.379 69.7395C187.587 69.6092 187.777 69.4531 187.945 69.275L189.126 68.1303L190.607 66.6539L192.021 65.2273C192.537 64.7296 193.002 64.2485 193.402 63.784L194.5 62.5399L195.282 61.6607C195.481 61.445 195.631 61.3289 195.714 61.3289C195.852 61.3115 195.992 61.3115 196.13 61.3289C196.304 61.3977 196.467 61.4928 196.613 61.6109C196.771 61.7361 196.906 61.8876 197.012 62.0588C197.112 62.2479 197.163 62.4588 197.162 62.6726C196.929 63.2532 196.629 63.9499 196.263 64.7794C195.897 65.6088 195.465 66.4383 194.982 67.4336C194.5 68.4289 193.967 69.3745 193.318 70.3864C192.67 71.3984 192.187 72.4103 191.655 73.4056C191.122 74.4009 190.49 75.3133 189.891 76.1925C189.292 77.0718 188.727 77.8514 188.228 78.4984C187.758 79.0672 187.234 79.5894 186.664 80.0578C186.32 80.3882 185.875 80.5928 185.399 80.6384C185.037 80.6386 184.677 80.5769 184.335 80.4559C183.969 80.3212 183.627 80.131 183.32 79.8919C183.013 79.6636 182.744 79.3894 182.521 79.079C182.315 78.7944 182.204 78.4517 182.205 78.1003C182.216 77.5316 182.428 76.985 182.804 76.5575C183.221 76.0558 183.696 75.6048 184.218 75.2138C184.741 74.8264 185.297 74.4877 185.882 74.2019C186.266 74.0043 186.66 73.8271 187.063 73.671C187.162 73.6526 187.264 73.6526 187.363 73.671C187.462 73.671 187.512 73.671 187.512 73.671C187.512 73.671 187.512 73.7872 187.379 73.8369C186.998 74.1692 186.637 74.5237 186.298 74.8986C185.924 75.3157 185.574 75.7532 185.25 76.2091C184.959 76.6136 184.693 77.0346 184.451 77.4699C184.291 77.7389 184.189 78.0384 184.152 78.3491C184.124 78.6962 184.231 79.0406 184.451 79.3113C184.557 79.4197 184.684 79.5051 184.824 79.5622C184.964 79.6193 185.115 79.6468 185.266 79.643C185.466 79.643 185.765 79.3942 186.181 78.9131C186.701 78.2987 187.179 77.6503 187.612 76.9722C188.161 76.176 188.727 75.3133 189.276 74.2185C189.825 73.1236 190.474 72.1117 191.056 71.0168C191.638 69.9219 192.187 68.8271 192.72 67.699C193.252 66.571 193.651 65.6254 193.984 64.7296C193.984 64.6633 193.984 64.6301 193.984 64.6301C193.984 64.6301 193.851 64.6301 193.734 64.796C193.318 65.1775 192.869 65.6254 192.387 66.1231L190.906 67.782C190.39 68.3294 189.908 68.8768 189.409 69.4409C188.91 70.0049 188.477 70.4694 188.078 70.9007C187.741 71.2612 187.385 71.6045 187.013 71.9292C186.714 72.1946 186.497 72.3273 186.364 72.3273C186.202 72.3115 186.044 72.2666 185.899 72.1946C185.701 72.0902 185.516 71.9621 185.35 71.8131C185.169 71.6603 185.012 71.4813 184.884 71.2822C184.752 71.0796 184.683 70.8433 184.684 70.6021C184.718 70.1528 184.837 69.7139 185.033 69.3082C185.283 68.7607 185.582 68.1469 185.948 67.4668C186.314 66.7866 186.714 66.0899 187.146 65.3766L188.377 63.3361C188.76 62.7058 189.109 62.1583 189.392 61.6773C189.594 61.3505 189.777 61.0126 189.941 60.6653C189.366 60.7319 188.804 60.8887 188.278 61.1298C187.554 61.423 186.863 61.7899 186.215 62.2247C185.493 62.713 184.819 63.2684 184.202 63.8836C183.554 64.4699 182.993 65.1459 182.538 65.8908C182.438 66.071 182.354 66.2598 182.288 66.4549C182.288 66.6539 182.172 66.8364 182.122 67.0189C182.072 67.2014 182.039 67.3341 182.022 67.4502C182.006 67.5663 181.939 67.6161 181.889 67.6161C181.76 67.6043 181.637 67.5521 181.54 67.4668C181.383 67.3602 181.247 67.2252 181.14 67.0687C181.007 66.8773 180.895 66.6713 180.808 66.4549C180.673 66.2082 180.589 65.9377 180.558 65.6586ZM219.388 60.1677C219.388 60.1677 219.388 60.1677 219.571 60.1677C219.737 60.1734 219.9 60.2071 220.054 60.2672C220.258 60.3317 220.453 60.4208 220.636 60.5326C220.817 60.6383 220.98 60.7727 221.118 60.9308C221.22 61.0574 221.273 61.2163 221.268 61.3787C221.231 61.7177 221.111 62.0425 220.919 62.3242C220.686 62.7389 220.403 63.1703 220.054 63.6679C219.704 64.1656 219.305 64.6301 218.889 65.1277C218.473 65.6254 218.074 66.0733 217.691 66.488C217.309 66.9028 217.009 67.2345 216.743 67.4834C216.477 67.7322 216.31 67.8649 216.261 67.8649C216.211 67.8649 216.078 67.8649 216.078 67.6659C216.068 67.6166 216.068 67.5658 216.078 67.5166C216.277 67.0852 216.493 66.571 216.76 65.9406L217.575 64.0163C216.493 64.8623 215.312 65.8577 214.064 67.0355C212.817 68.2133 211.502 69.4575 210.171 70.8012C210.271 71.2159 210.388 71.7135 210.554 72.261C210.72 72.8084 210.887 73.3724 211.086 73.9199C211.286 74.4673 211.486 75.0645 211.702 75.5788C211.918 76.093 212.118 76.6239 212.334 77.0552C212.509 77.4328 212.726 77.7891 212.983 78.1169C213.199 78.3823 213.399 78.5316 213.582 78.5316C213.831 78.5268 214.077 78.473 214.305 78.3734C214.534 78.2738 214.74 78.1302 214.913 77.951C215.146 77.7353 215.312 77.6192 215.395 77.6192C215.479 77.6192 215.645 77.7187 215.645 77.9178C215.608 78.0809 215.546 78.2375 215.462 78.3823C215.301 78.6645 215.099 78.9216 214.863 79.1454C214.582 79.4216 214.263 79.6563 213.915 79.8421C213.517 80.059 213.07 80.1677 212.617 80.1573C212.34 80.139 212.071 80.0613 211.827 79.9296C211.582 79.7979 211.37 79.6153 211.203 79.3942C210.714 78.8098 210.305 78.1626 209.988 77.4699C209.615 76.6593 209.304 75.822 209.057 74.965C208.807 74.1426 208.607 73.3062 208.458 72.46L205.513 75.6119L204.997 76.7068C204.831 77.0386 204.681 77.3869 204.548 77.7187C204.374 78.0938 204.229 78.4821 204.116 78.8799C204.116 79.1122 203.966 79.2449 203.833 79.2449C203.653 79.2382 203.477 79.1929 203.317 79.1122C203.138 79.0154 202.971 78.8985 202.818 78.7638C202.671 78.6481 202.551 78.5007 202.469 78.3325C202.383 78.1986 202.337 78.0434 202.336 77.8846C202.438 77.3966 202.6 76.923 202.818 76.4746C203.084 75.8608 203.417 75.1474 203.816 74.3512C204.216 73.5549 204.648 72.6923 205.131 71.7799C205.613 70.8675 206.112 69.9717 206.628 69.0593C207.792 66.9359 209.118 64.6301 210.604 62.1417C209.371 62.6307 208.181 63.2188 207.044 63.9002C206.029 64.514 205.114 65.1112 204.299 65.7084C204.007 65.9295 203.749 66.1922 203.533 66.488C203.334 66.7535 203.201 66.8862 203.118 66.8862C203.034 66.8862 202.951 66.7369 202.918 66.4217C202.893 66.1125 202.893 65.8019 202.918 65.4927C202.897 65.2775 202.897 65.0609 202.918 64.8457C203.01 64.519 203.225 64.24 203.517 64.0661C203.952 63.7555 204.414 63.4835 204.898 63.2532C205.463 62.9712 206.046 62.6892 206.678 62.4403C207.31 62.1915 207.926 61.9261 208.508 61.7104C209.09 61.4948 209.606 61.2957 210.055 61.1464L210.97 60.8478H211.153H211.336C211.509 60.8502 211.679 60.8898 211.835 60.9639C212.016 61.0472 212.189 61.1472 212.351 61.2625C212.495 61.3726 212.623 61.5008 212.734 61.6441C212.811 61.7529 212.862 61.8777 212.883 62.009L212.035 63.5186C211.619 64.2485 211.136 65.1775 210.587 66.1231L208.791 69.4409C208.158 70.5468 207.543 71.708 206.944 72.9245L208.325 71.4315V71.332C208.332 71.2279 208.373 71.1289 208.441 71.05C208.524 70.9196 208.618 70.7974 208.724 70.685L209.123 70.3367C209.256 70.2402 209.402 70.1621 209.556 70.1044C210.305 69.3247 211.086 68.4455 211.918 67.6493C212.75 66.853 213.582 65.9904 214.364 65.1941C215.146 64.3978 216.028 63.6845 216.693 63.0375C217.33 62.445 218.003 61.8911 218.706 61.3787C218.839 61.0801 218.956 60.8478 219.039 60.6819L219.388 60.1677ZM222.333 63.585C222.387 63.566 222.445 63.566 222.499 63.585C222.654 63.5929 222.805 63.6265 222.948 63.6845C223.124 63.7412 223.291 63.8192 223.448 63.9168C223.606 64.0276 223.746 64.1618 223.863 64.3149C223.981 64.4808 224.05 64.6761 224.063 64.8789C224.071 64.9116 224.071 64.9457 224.063 64.9784C223.941 65.3726 223.785 65.7556 223.597 66.1231C223.331 66.6982 222.982 67.3949 222.549 68.2133C222.117 69.0427 221.634 69.8722 221.085 70.967C220.536 72.0619 219.987 73.0075 219.421 74.0858C219.954 73.6213 220.47 73.1734 220.919 72.7421C221.368 72.3107 221.85 71.8463 222.316 71.3486C222.491 71.1267 222.68 70.9161 222.882 70.7182C223.082 70.5191 223.248 70.403 223.364 70.403C223.519 70.4078 223.671 70.4415 223.814 70.5026C223.983 70.5746 224.145 70.6635 224.296 70.768C224.447 70.8621 224.582 70.9797 224.695 71.1163C224.788 71.2237 224.846 71.3568 224.862 71.4979C224.874 71.5525 224.874 71.6092 224.862 71.6638L224.03 73.3227C223.714 73.9033 223.414 74.4673 223.148 74.9816C222.882 75.4958 222.649 75.9935 222.466 76.3916C222.336 76.6417 222.247 76.9103 222.2 77.1879C222.38 77.1434 222.549 77.0646 222.699 76.9556L223.597 76.3584C223.93 76.1262 224.296 75.8442 224.679 75.5456L225.827 74.6664L226.875 73.8535L227.673 73.2729H227.806C227.89 73.2729 227.923 73.2729 227.923 73.3724C227.834 73.5555 227.71 73.7191 227.557 73.8535L226.609 74.8654L225.328 76.093L223.947 77.304C223.497 77.669 223.098 77.9676 222.732 78.2164C222.495 78.4064 222.215 78.5372 221.917 78.5979C221.732 78.5931 221.55 78.5478 221.385 78.4652C221.218 78.3857 221.067 78.2792 220.935 78.15C220.805 78.022 220.693 77.8769 220.603 77.7187C220.513 77.5805 220.467 77.4188 220.47 77.2542C220.514 76.8459 220.626 76.4478 220.802 76.0764C221.035 75.5456 221.301 75.0147 221.584 74.4175C221.867 73.8203 222.117 73.3558 222.35 72.8914C222.507 72.6198 222.615 72.3219 222.666 72.0121C222.666 72.0121 222.366 72.178 222 72.5264C221.634 72.8748 221.218 73.3227 220.719 73.8701C220.22 74.4175 219.688 75.0645 219.055 75.7778C218.423 76.4911 217.941 77.1879 217.392 77.9012C216.81 79.0293 216.327 80.0578 215.944 80.9702C215.599 81.7706 215.337 82.6045 215.162 83.4585C215.172 83.5966 215.172 83.7351 215.162 83.8732C215.149 83.9556 215.149 84.0396 215.162 84.122V84.2216C215.162 84.2216 215.162 84.2216 215.162 84.3377C215.093 84.3967 215.004 84.4265 214.913 84.4206C214.769 84.4137 214.628 84.38 214.497 84.3211C214.337 84.2453 214.186 84.1506 214.048 84.0391C213.904 83.9153 213.78 83.7698 213.682 83.6078C213.579 83.4419 213.517 83.2545 213.499 83.0604C213.522 82.6503 213.629 82.2493 213.815 81.8825C214.031 81.3185 214.347 80.6384 214.73 79.8255C215.113 79.0127 215.612 78.1666 216.177 77.0552C216.743 75.9437 217.342 74.882 218.007 73.7374C218.906 72.0785 219.671 70.6519 220.237 69.5072C220.802 68.3626 221.285 67.417 221.601 66.6705C221.846 66.1291 222.062 65.5754 222.25 65.0116C222.348 64.7345 222.398 64.4429 222.399 64.149C222.408 64.0774 222.408 64.005 222.399 63.9334V63.784C222.374 63.7577 222.356 63.7262 222.344 63.6919C222.333 63.6575 222.329 63.621 222.333 63.585ZM228.705 70.2205C228.881 70.1972 229.06 70.1972 229.237 70.2205C229.42 70.2558 229.599 70.3115 229.77 70.3864C229.923 70.4569 230.063 70.5522 230.185 70.6684C230.233 70.7134 230.27 70.7674 230.296 70.8273C230.322 70.8872 230.335 70.9517 230.335 71.0168C230.302 71.2511 230.223 71.4765 230.102 71.6804C229.925 72.0676 229.725 72.4443 229.503 72.8084L228.721 74.1853L227.939 75.5788C227.69 76.0267 227.49 76.4082 227.341 76.7566C227.217 76.977 227.138 77.2193 227.108 77.4699C227.108 77.6524 227.108 77.7685 227.224 77.8183C227.306 77.8393 227.392 77.8393 227.474 77.8183C227.629 77.7932 227.773 77.7241 227.89 77.6192C228.086 77.4744 228.269 77.3135 228.439 77.1381C228.64 76.9339 228.829 76.7179 229.004 76.4911C229.182 76.2693 229.328 76.0236 229.437 75.7612C229.242 75.3996 229.144 74.9938 229.154 74.5834C229.149 74.2306 229.217 73.8806 229.354 73.5549C229.487 73.2563 229.653 73.107 229.869 73.107C230.018 73.1134 230.165 73.1472 230.302 73.2065C230.472 73.2693 230.634 73.3528 230.784 73.4554C230.932 73.5609 231.061 73.6898 231.167 73.8369C231.276 73.9736 231.335 74.1434 231.333 74.318C231.319 74.8578 231.176 75.3865 230.917 75.8608H231.167C231.31 75.8431 231.447 75.7919 231.566 75.7115L232.165 75.3797L232.914 74.8986L233.696 74.3844C233.929 73.8978 234.178 73.4167 234.444 72.9411C234.711 72.4435 234.96 72.0121 235.193 71.6306C235.426 71.2491 235.642 70.9339 235.825 70.685C236.008 70.4362 236.141 70.3367 236.225 70.3367C236.369 70.34 236.51 70.3739 236.64 70.4362C236.778 70.5035 236.906 70.587 237.023 70.685L237.306 70.9836C237.367 71.078 237.401 71.1868 237.406 71.2988C237.394 71.5225 237.326 71.7395 237.206 71.9292C237.063 72.2082 236.896 72.4746 236.707 72.7255C236.495 73.0194 236.267 73.3018 236.025 73.5715L235.343 74.3014C235.093 74.7659 234.827 75.2968 234.544 75.9603C234.285 76.4854 234.101 77.0437 233.995 77.6192C234.489 77.3819 234.962 77.1045 235.409 76.7898C236.008 76.375 236.607 75.9271 237.206 75.4626C237.805 74.9982 238.387 74.5502 238.87 74.1023C239.352 73.6544 239.752 73.3558 239.951 73.1568C240.151 72.9577 240.167 73.1568 240.167 73.2895C240.16 73.379 240.118 73.4622 240.051 73.5217C239.992 73.6051 239.925 73.6829 239.851 73.754L239.386 74.2516C239.153 74.5337 238.87 74.8488 238.52 75.2138L237.372 76.3584C236.94 76.7732 236.524 77.1547 236.108 77.5031C235.738 77.8167 235.343 78.0997 234.927 78.3491C234.638 78.5379 234.306 78.6519 233.962 78.6809C233.821 78.6773 233.683 78.6372 233.563 78.5648C233.394 78.4969 233.241 78.3952 233.113 78.2662C232.971 78.133 232.852 77.9758 232.764 77.8017C232.665 77.6365 232.613 77.447 232.614 77.2542C232.632 77.0163 232.683 76.7819 232.764 76.5575C232.866 76.2056 232.994 75.8618 233.147 75.529C232.748 75.8781 232.325 76.1995 231.882 76.4911C231.607 76.7049 231.28 76.8422 230.934 76.8893C230.745 76.8766 230.559 76.8317 230.385 76.7566C230.021 77.2905 229.571 77.7612 229.054 78.15C228.644 78.5004 228.129 78.7047 227.59 78.7306C227.358 78.7551 227.124 78.7551 226.891 78.7306C226.668 78.6679 226.455 78.5729 226.259 78.4486C226.062 78.3218 225.897 78.1515 225.777 77.951C225.642 77.726 225.579 77.466 225.594 77.2045C225.609 76.7382 225.722 76.2804 225.926 75.8608C226.175 75.3369 226.453 74.8274 226.758 74.3346C227.058 73.8037 227.374 73.2563 227.657 72.6757C227.943 72.1526 228.161 71.5951 228.305 71.0168C228.368 70.8041 228.418 70.5881 228.455 70.3698C228.522 70.2703 228.588 70.1708 228.705 70.1708V70.2205ZM240.101 72.9909C240.228 72.9692 240.357 72.9692 240.484 72.9909C240.62 73.0315 240.749 73.093 240.866 73.1734C240.974 73.233 241.07 73.3117 241.149 73.4056C241.213 73.4611 241.254 73.5377 241.265 73.6213C241.005 73.8631 240.776 74.1361 240.583 74.4341C240.355 74.7432 240.144 75.0644 239.951 75.3963C239.774 75.6974 239.613 76.0075 239.469 76.3253C239.383 76.5176 239.316 76.7175 239.269 76.9225C239.269 77.0718 239.269 77.1547 239.386 77.1547C239.623 77.0316 239.841 76.8752 240.034 76.6902C240.417 76.375 240.85 75.9603 241.365 75.446C241.881 74.9318 242.397 74.3678 242.946 73.7872C243.469 73.199 243.932 72.5599 244.327 71.8794C244.431 71.7096 244.51 71.5251 244.56 71.332C244.603 71.1404 244.637 70.9466 244.659 70.7514C244.678 70.619 244.718 70.4904 244.776 70.3698C244.776 70.2703 244.926 70.2371 245.075 70.2371C245.229 70.2354 245.382 70.2635 245.524 70.3201C245.7 70.3828 245.868 70.4663 246.024 70.5689C246.17 70.6618 246.305 70.7734 246.423 70.9007C246.514 70.9894 246.573 71.1063 246.589 71.2325C246.57 71.495 246.508 71.7526 246.406 71.9956C246.295 72.3273 246.146 72.6923 245.957 73.0904C245.774 73.4886 245.591 73.8867 245.375 74.3014C245.158 74.7161 244.975 75.1143 244.809 75.4792L244.36 76.4082C244.273 76.5753 244.212 76.7541 244.177 76.9391C244.177 76.9391 244.46 76.8063 244.759 76.5243C245.059 76.2423 245.391 75.894 245.791 75.4626C246.19 75.0313 246.606 74.5171 247.055 73.9696C247.504 73.4222 247.953 72.8582 248.353 72.3107L248.586 71.9624L248.885 71.4647C248.99 71.3167 249.085 71.1615 249.168 71.0002C249.168 70.8509 249.318 70.7846 249.351 70.7846C249.478 70.7684 249.607 70.7684 249.734 70.7846C249.91 70.8247 250.083 70.8802 250.249 70.9505C250.41 71.0046 250.562 71.0829 250.698 71.1827C250.752 71.2132 250.796 71.2565 250.828 71.3087C250.86 71.3609 250.879 71.4202 250.881 71.4813C250.846 71.6606 250.784 71.8339 250.698 71.9956L250.233 72.9079L249.634 74.0526C249.417 74.4673 249.201 74.8654 249.018 75.2636C248.839 75.6145 248.678 75.9744 248.536 76.3419C248.425 76.585 248.347 76.8416 248.303 77.1049C248.516 77.0043 248.722 76.8879 248.918 76.7566L249.9 76.1096L251.081 75.2967L252.246 74.4507L253.211 73.7374L253.776 73.3061C253.803 73.2951 253.831 73.2895 253.859 73.2895C253.888 73.2895 253.916 73.2951 253.943 73.3061H254.042C254.042 73.3061 254.042 73.3061 254.042 73.4222C254.018 73.4675 253.984 73.5071 253.943 73.5383L253.078 74.4175L251.996 75.5124L250.832 76.657C250.432 77.0552 250.05 77.4035 249.7 77.7021C249.351 78.0007 249.035 78.2496 248.752 78.4486C248.576 78.593 248.363 78.685 248.136 78.7141C247.949 78.7135 247.765 78.6619 247.604 78.5648C247.429 78.4505 247.267 78.3169 247.122 78.1666C246.986 78.0123 246.874 77.839 246.789 77.6524C246.696 77.4905 246.644 77.3081 246.639 77.1215C246.66 76.7613 246.745 76.4076 246.889 76.0764C247.055 75.6451 247.238 75.2138 247.438 74.7825C247.671 74.2848 247.937 73.7706 248.236 73.2231C248.12 73.3558 247.937 73.5881 247.704 73.9033C247.471 74.2185 247.221 74.5834 246.955 74.9816C246.689 75.3797 246.39 75.7778 246.073 76.1925L245.208 77.3538C244.973 77.6579 244.717 77.9461 244.443 78.2164C244.21 78.4486 244.044 78.5482 243.927 78.5482C243.738 78.5499 243.551 78.5102 243.378 78.432C243.201 78.3468 243.039 78.2349 242.896 78.1003C242.762 77.9757 242.649 77.83 242.563 77.669C242.469 77.5382 242.417 77.382 242.413 77.2211C242.434 76.9087 242.501 76.6012 242.613 76.3087C242.746 75.9105 242.896 75.529 243.062 75.1474L243.678 73.7374C243.47 73.9401 243.275 74.1562 243.095 74.3844L242.314 75.3797L241.399 76.5409C241.066 76.939 240.75 77.304 240.434 77.6192C240.145 77.9145 239.834 78.1863 239.502 78.432C239.28 78.6149 239.007 78.725 238.72 78.7472C238.526 78.7522 238.333 78.7147 238.155 78.6373C237.976 78.5599 237.817 78.4446 237.689 78.2993C237.437 78.053 237.289 77.7212 237.273 77.3704C237.289 76.8937 237.402 76.4254 237.605 75.9935C237.814 75.4891 238.07 75.0058 238.371 74.5502C238.637 74.1543 238.938 73.7823 239.269 73.4388C239.478 73.1879 239.776 73.0273 240.101 72.9909ZM257.037 75.1972L256.954 75.1143L256.239 76.0432C255.922 76.4746 255.573 76.9225 255.207 77.387C254.841 77.8514 254.492 78.2496 254.176 78.5979C253.859 78.9463 253.593 79.1122 253.427 79.1122C253.291 79.0982 253.16 79.0527 253.044 78.9795C252.877 78.8949 252.725 78.7828 252.595 78.6477C252.44 78.4885 252.306 78.3101 252.196 78.1169C252.08 77.9327 252.017 77.7205 252.013 77.5031C252.028 76.9352 252.14 76.3742 252.345 75.8442C252.58 75.2651 252.87 74.7097 253.211 74.1853C253.569 73.6003 253.976 73.0455 254.425 72.5264C254.85 72.0547 255.306 71.6114 255.789 71.1993C256.195 70.864 256.629 70.5643 257.087 70.3035C257.4 70.1147 257.753 70.0011 258.118 69.9717C258.356 69.9889 258.58 70.0887 258.751 70.2537C258.97 70.4347 259.16 70.6471 259.316 70.8841C259.549 70.486 259.782 70.1708 259.965 69.9054C260.148 69.6399 260.298 69.5072 260.381 69.5072C260.704 69.4992 261.018 69.6115 261.263 69.8224C261.512 70.0381 261.629 70.204 261.629 70.3201C261.542 70.5179 261.436 70.7068 261.313 70.8841C261.096 71.2325 260.83 71.6804 260.481 72.2278C260.132 72.7752 259.782 73.4056 259.399 74.0858C259.017 74.7659 258.651 75.4792 258.318 76.1925C258.004 76.8628 257.726 77.5494 257.486 78.2496C257.284 78.832 257.172 79.4417 257.154 80.0578C257.146 80.4143 257.179 80.7706 257.253 81.1195C257.295 81.3473 257.362 81.5698 257.453 81.783C257.453 81.783 257.453 81.783 257.353 81.783C257.182 81.7753 257.016 81.7239 256.871 81.6337C256.686 81.5055 256.523 81.3487 256.388 81.1692C256.21 80.9536 256.074 80.7058 255.989 80.4393C255.872 80.1381 255.815 79.8168 255.823 79.4937C255.821 79.0142 255.871 78.5359 255.972 78.0671C256.06 77.6377 256.182 77.216 256.338 76.8063C256.454 76.4679 256.587 76.1357 256.738 75.811L257.037 75.1972ZM256.954 74.3512C257.328 73.9037 257.672 73.4327 257.985 72.9411L258.984 71.3984C258.919 71.3179 258.838 71.2514 258.746 71.2029C258.655 71.1544 258.554 71.125 258.451 71.1163C258.132 71.1574 257.831 71.2899 257.586 71.4979C257.197 71.7911 256.835 72.1187 256.505 72.4766C256.139 72.8748 255.756 73.3227 255.39 73.8038C255.038 74.279 254.71 74.7718 254.408 75.2802C254.139 75.7107 253.9 76.1597 253.693 76.6239C253.538 76.9462 253.448 77.2956 253.427 77.6524C253.424 77.6726 253.426 77.6932 253.433 77.7126C253.439 77.732 253.45 77.7495 253.465 77.764C253.479 77.7784 253.497 77.7894 253.516 77.7959C253.536 77.8024 253.556 77.8044 253.577 77.8017C253.577 77.8017 253.76 77.7021 253.993 77.4865L254.841 76.6736L255.906 75.5622C256.205 75.1806 256.638 74.7825 256.954 74.3844V74.3512ZM276.918 73.3227L277.068 73.2231H277.201H277.301C277.309 73.2614 277.309 73.301 277.301 73.3393C277.192 73.5477 277.052 73.738 276.885 73.9033C276.602 74.2351 276.236 74.6166 275.787 75.0811C275.337 75.5456 274.822 76.0433 274.239 76.5575C273.682 77.0678 273.099 77.5495 272.493 78.0007C271.968 78.4088 271.411 78.7749 270.829 79.0956C270.408 79.3601 269.928 79.5142 269.431 79.5435C269.104 79.5551 268.777 79.4976 268.473 79.3746C268.169 79.2517 267.895 79.0662 267.668 78.8302C267.206 78.3235 266.961 77.6566 266.986 76.9722C266.985 76.7091 267.019 76.4471 267.086 76.1925C266.921 76.1214 266.765 76.0324 266.62 75.9271C266.503 75.8442 266.437 75.7612 266.437 75.6949C266.437 75.6285 266.437 75.5788 266.587 75.5788H266.819C266.942 75.6327 267.07 75.6717 267.202 75.6949C267.486 74.9207 267.866 74.185 268.333 73.5051C268.81 72.7805 269.327 72.0827 269.881 71.4149C270.348 70.8601 270.854 70.339 271.395 69.8556C271.86 69.4409 272.176 69.2418 272.343 69.2418C272.544 69.2612 272.74 69.3116 272.925 69.3911C273.184 69.4871 273.434 69.6036 273.674 69.7395C273.674 69.474 273.674 69.2584 273.674 69.0925C273.674 68.9266 273.674 68.8437 273.807 68.8437C273.959 68.856 274.107 68.9013 274.239 68.9764C274.42 69.0775 274.588 69.2 274.739 69.3413C274.889 69.4922 275.023 69.6591 275.138 69.839C275.251 70.0122 275.314 70.213 275.321 70.4196C275.279 71.089 275.048 71.733 274.655 72.2776C274.189 72.9799 273.629 73.616 272.992 74.1687C272.332 74.7636 271.607 75.2812 270.829 75.7115C270.155 76.1068 269.408 76.3608 268.633 76.458C268.626 76.5851 268.626 76.7124 268.633 76.8395C268.625 76.9444 268.625 77.0498 268.633 77.1547C268.628 77.4363 268.691 77.7149 268.816 77.9676C268.86 78.0684 268.932 78.1546 269.023 78.2163C269.114 78.278 269.221 78.3125 269.332 78.3159C269.722 78.2937 270.102 78.1861 270.446 78.0007C270.949 77.7793 271.433 77.5186 271.894 77.2211C272.409 76.8893 272.925 76.5409 273.457 76.1428C273.99 75.7447 274.489 75.3631 274.955 74.9816L276.203 73.953C276.435 73.754 276.685 73.5217 276.851 73.3558L276.918 73.3227ZM273.141 71.9956C273.278 71.7866 273.379 71.5569 273.441 71.3154C273.507 71.0756 273.557 70.8318 273.591 70.5855L272.942 70.8509C272.639 71.0326 272.36 71.2498 272.11 71.4979C271.761 71.8463 271.395 72.2444 270.995 72.7255C270.586 73.2197 270.203 73.7346 269.847 74.2682C269.495 74.791 269.194 75.3466 268.949 75.9271C269.714 75.658 270.412 75.228 270.995 74.6664C271.804 73.8839 272.503 72.9967 273.075 72.0287L273.141 71.9956ZM281.926 69.4906C282.024 69.5016 282.12 69.5297 282.208 69.5736L282.541 69.7561C282.646 69.8199 282.741 69.8981 282.824 69.9883C282.88 70.0471 282.916 70.123 282.924 70.204C282.886 70.4964 282.789 70.7784 282.641 71.0334C282.441 71.4094 282.208 71.8076 281.942 72.2278C281.696 72.61 281.418 72.9708 281.11 73.3061C280.828 73.6213 280.595 73.7872 280.428 73.7872C280.262 73.7872 280.428 73.7872 280.428 73.6876C280.42 73.6549 280.42 73.6208 280.428 73.5881C280.428 73.3558 280.611 73.107 280.711 72.8084C280.811 72.5098 280.911 72.2112 281.011 71.8794L280.728 71.7467H280.462C280.09 71.8216 279.756 72.0206 279.513 72.3107C279.067 72.7423 278.655 73.2082 278.282 73.7042C277.878 74.2278 277.517 74.7825 277.201 75.3631C276.936 75.8368 276.782 76.3643 276.752 76.9059C276.752 77.3704 276.951 77.6192 277.35 77.6192C277.851 77.5524 278.333 77.383 278.765 77.1215C279.413 76.7898 280.112 76.3916 280.861 75.9437C281.609 75.4958 282.308 74.9981 282.99 74.5005C283.539 74.1269 284.061 73.7168 284.554 73.2729H284.687H284.804C284.804 73.2729 284.937 73.2729 284.937 73.5051C284.808 73.6788 284.663 73.8399 284.504 73.9862L283.373 75.0313C282.907 75.446 282.408 75.8774 281.826 76.3253C281.243 76.7732 280.694 77.2211 280.162 77.6192C279.625 77.9746 279.07 78.3013 278.498 78.5979C278.13 78.8235 277.714 78.9599 277.284 78.9961C276.753 78.9809 276.244 78.788 275.837 78.4486C275.609 78.272 275.412 78.059 275.254 77.8183C275.092 77.5603 275.011 77.2599 275.021 76.9556C275.036 76.2274 275.218 75.5122 275.554 74.8654C275.918 74.1238 276.353 73.4184 276.851 72.7586C277.303 72.1439 277.828 71.5868 278.415 71.0998C278.782 70.7433 279.255 70.5161 279.763 70.4528C280.037 70.461 280.302 70.5474 280.528 70.7016C280.769 70.8472 280.992 71.0197 281.194 71.2159C281.229 71.1186 281.257 71.0188 281.277 70.9173C281.277 70.8177 281.277 70.7182 281.277 70.6187C281.46 69.8888 281.659 69.5238 281.859 69.5238L281.926 69.4906ZM285.769 69.8722H286.101C286.286 69.892 286.466 69.9424 286.634 70.0215C286.811 70.0851 286.974 70.1807 287.116 70.3035C287.184 70.3497 287.239 70.4116 287.276 70.484C287.314 70.5563 287.333 70.6367 287.333 70.7182C287.318 70.9623 287.25 71.2002 287.133 71.4149C286.994 71.7108 286.838 71.9988 286.667 72.2776C286.484 72.5762 286.301 72.8416 286.118 73.107L285.719 73.7042L286.501 72.9577C286.85 72.5928 287.216 72.2444 287.599 71.8794C287.981 71.5145 288.347 71.1993 288.697 70.9173C288.924 70.7058 289.207 70.5621 289.512 70.5026C289.793 70.5108 290.07 70.5728 290.327 70.685C290.61 70.8012 290.743 70.9339 290.743 71.0666C290.721 71.327 290.665 71.5835 290.577 71.8297C290.466 72.1614 290.333 72.5098 290.177 72.8748L289.728 73.953C289.578 74.3014 289.479 74.5668 289.412 74.7659C289.549 74.6293 289.672 74.4793 289.778 74.318L290.427 73.4388L291.275 72.3771C291.575 72.0121 291.891 71.6638 292.207 71.3486C292.497 71.0588 292.815 70.7976 293.155 70.5689C293.397 70.3761 293.694 70.2656 294.004 70.2537C294.134 70.2608 294.26 70.3007 294.37 70.3698C294.526 70.4399 294.677 70.5232 294.819 70.6187C294.956 70.7054 295.079 70.8116 295.185 70.9339C295.263 70.9961 295.317 71.0845 295.335 71.1827C295.316 71.4704 295.243 71.752 295.118 72.0121C294.951 72.4089 294.762 72.7966 294.553 73.1734C294.337 73.5881 294.104 74.036 293.837 74.4839L293.122 75.7446L292.573 76.74C292.465 76.9019 292.386 77.0816 292.34 77.2708V77.3538C292.644 77.2545 292.93 77.109 293.189 76.9225C293.654 76.6239 294.203 76.2589 294.852 75.8276L296.766 74.4839L298.429 73.2895C298.493 73.2637 298.565 73.2637 298.629 73.2895H298.729C298.614 73.479 298.474 73.6521 298.313 73.8038C298.03 74.1024 297.664 74.4507 297.248 74.8488C296.832 75.247 296.333 75.6949 295.817 76.1428L294.32 77.4035C293.821 77.7851 293.388 78.1003 293.006 78.3491C292.774 78.5412 292.5 78.6775 292.207 78.7472C291.828 78.7526 291.457 78.6426 291.142 78.432C291.006 78.3518 290.893 78.2379 290.815 78.1012C290.736 77.9646 290.694 77.8099 290.693 77.6524C290.733 77.2052 290.863 76.7706 291.076 76.375C291.325 75.8276 291.608 75.2636 291.924 74.7161L292.789 73.0572C292.987 72.7327 293.117 72.3715 293.172 71.9956H293.089C292.939 71.9956 292.673 72.1614 292.307 72.4932C291.847 72.8974 291.419 73.3355 291.026 73.8038C290.56 74.3512 290.078 74.965 289.562 75.6451C289.046 76.3253 288.614 77.0386 288.198 77.7519C288.119 77.9068 288.03 78.0565 287.931 78.1998C287.848 78.3325 287.765 78.4155 287.698 78.4155C287.582 78.4046 287.469 78.3708 287.366 78.3159C287.225 78.2664 287.091 78.1995 286.966 78.1169C286.835 78.0357 286.718 77.935 286.617 77.8183C286.526 77.7245 286.473 77.6004 286.467 77.4699C286.507 77.2969 286.568 77.1297 286.65 76.9722C286.767 76.7068 286.933 76.375 287.116 76.0101C287.299 75.6451 287.482 75.2304 287.682 74.7991C287.882 74.3678 288.081 73.953 288.264 73.5549C288.447 73.1568 288.597 72.8084 288.73 72.4766C288.828 72.25 288.89 72.0092 288.913 71.7633C288.913 71.7633 288.614 71.9458 288.248 72.3439C287.882 72.7421 287.449 73.19 286.983 73.754C286.517 74.318 286.018 74.9152 285.552 75.5456C285.151 76.0747 284.785 76.6288 284.454 77.2045C284.206 77.6624 283.994 78.1395 283.822 78.6311C283.722 78.9795 283.606 79.162 283.489 79.162C283.351 79.1568 283.215 79.1229 283.09 79.0624C282.939 78.9861 282.794 78.8973 282.658 78.797C282.529 78.6863 282.417 78.5578 282.325 78.4155C282.229 78.2983 282.176 78.152 282.175 78.0007C282.231 77.4753 282.396 76.9671 282.658 76.5077C282.99 75.8608 283.356 75.164 283.772 74.4341L284.953 72.3107C285.26 71.7874 285.506 71.2308 285.685 70.6519C285.727 70.4774 285.727 70.2955 285.685 70.121C285.602 70.0215 285.619 69.9551 285.702 69.9054L285.769 69.8722ZM287.748 68.4621C287.748 68.4621 287.748 68.4621 287.882 68.4621C288.085 68.475 288.287 68.5141 288.48 68.5782C288.873 68.6702 289.276 68.7092 289.678 68.6944C290.236 68.6878 290.792 68.6379 291.342 68.5451C291.902 68.4667 292.458 68.3559 293.006 68.2133L294.32 67.8815L294.886 67.7156C295.002 67.7156 295.069 67.7156 295.069 67.9313C295.069 68.1469 294.902 68.1303 294.586 68.3294C294.205 68.558 293.811 68.763 293.405 68.9432C292.908 69.1693 292.396 69.3632 291.874 69.5238C291.393 69.6932 290.887 69.7828 290.377 69.7892C289.982 69.7972 289.589 69.7412 289.212 69.6233C288.917 69.5394 288.633 69.4226 288.364 69.275C288.165 69.1671 287.985 69.0269 287.832 68.8603C287.743 68.7583 287.69 68.6301 287.682 68.4953L287.748 68.4621ZM300.109 69.6233C300.275 69.5983 300.443 69.5983 300.609 69.6233C300.767 69.675 300.918 69.7475 301.058 69.839C301.178 69.9211 301.29 70.0156 301.391 70.121C301.465 70.1977 301.512 70.2969 301.524 70.403C301.471 70.6422 301.381 70.8717 301.257 71.0832C301.091 71.4149 300.875 71.8131 300.609 72.2776C300.342 72.7255 300.06 73.2397 299.76 73.7706C299.461 74.3014 299.178 74.8157 298.928 75.3299C298.679 75.8442 298.446 76.3087 298.263 76.74C298.12 77.0598 298.035 77.4025 298.013 77.7519C298.001 77.9331 298.048 78.1134 298.146 78.2662C298.179 78.3259 298.227 78.3759 298.286 78.4109C298.344 78.4459 298.411 78.4646 298.479 78.4652C298.596 78.4652 298.779 78.2828 299.028 77.9344C299.302 77.5379 299.547 77.122 299.76 76.6902C300.009 76.2105 300.231 75.7177 300.426 75.2138C300.587 74.8287 300.683 74.4194 300.708 74.0028C300.729 73.8154 300.729 73.6263 300.708 73.4388C300.708 73.3061 300.708 73.19 300.708 73.107C300.714 73.0463 300.714 72.9852 300.708 72.9245C300.699 72.8808 300.699 72.8356 300.708 72.7918C300.708 72.7918 300.708 72.6757 300.858 72.6259C300.956 72.5754 301.064 72.5471 301.174 72.543C301.298 72.566 301.416 72.6109 301.524 72.6757C301.704 72.7845 301.877 72.9065 302.039 73.0407C302.202 73.183 302.352 73.3383 302.489 73.5051C302.607 73.6321 302.678 73.7964 302.688 73.9696C302.674 74.2721 302.606 74.5697 302.489 74.8488C302.342 75.2358 302.17 75.6127 301.973 75.9769C301.743 76.3819 301.494 76.775 301.224 77.1547C300.946 77.5315 300.646 77.8915 300.326 78.233C300.05 78.5208 299.744 78.7768 299.411 78.9961C299.156 79.1743 298.856 79.2778 298.546 79.2947C298.326 79.2945 298.11 79.2434 297.913 79.1454C297.719 79.0431 297.54 78.9147 297.381 78.7638C297.239 78.6018 297.116 78.4236 297.015 78.233C296.933 78.0557 296.888 77.8639 296.882 77.669C296.881 76.9887 297.005 76.3139 297.248 75.6783C297.492 75.0233 297.781 74.3859 298.113 73.7706C298.446 73.1402 298.795 72.5596 299.145 72.0121C299.466 71.5226 299.744 71.0065 299.976 70.4694C300.063 70.2628 300.119 70.0449 300.143 69.8224C299.86 69.7561 299.926 69.6731 300.043 69.6731L300.109 69.6233Z" fill="#C7C7C7"/>
<path d="M70.0073 80.3068L58.5778 70.8179V65.7915L48.2298 55.5562V74.6666L70.0073 86.0963V80.3068Z" fill="#BDBDBD"/>
<path d="M45.6012 55.2075H26.4357V74.3179H45.6012V55.2075Z" fill="#BDBDBD"/>
<path d="M83.0338 83.9893L71.2051 62.3242V69.6731L83.0338 86.345V83.9893Z" fill="#BDBDBD"/>
<path d="M79.7564 87.2244H82.5014L69.7743 70.9175H61.5392L79.7564 87.2244Z" fill="#BDBDBD"/>
<path d="M69.2087 60.3169H60.5909V68.9099H69.2087V60.3169Z" fill="#BDBDBD"/>
<path d="M77.1777 105.14L64.4672 112.837H75.4807L82.5513 105.14H77.1777Z" fill="#BDBDBD"/>
<path d="M83.3332 105.986L76.8616 114.082V124.5L83.3332 111.029V105.986Z" fill="#BDBDBD"/>
<path d="M56.5482 106.152L32.0589 112.655H51.5738L51.6237 112.622L67.4119 106.152H56.5482Z" fill="#BDBDBD"/>
<path d="M50.9083 115.26H27.7167V138.385H50.9083V115.26Z" fill="#BDBDBD"/>
<path d="M60.6574 112.921L70.0239 107.811V106.965L53.5203 114.945V137.92L61.4726 129.012H60.6574V112.921Z" fill="#BDBDBD"/>
<path d="M74.6655 115.044H62.8701V126.805H74.6655V115.044Z" fill="#BDBDBD"/>
<path d="M116.39 125.794L130.099 141.271V120.717L116.39 112.605V125.794Z" fill="#BDBDBD"/>
<path d="M99.3877 106.766L108.105 116.603V107.695L99.3877 102.536V106.766Z" fill="#BDBDBD"/>
<path d="M118.753 108.408H110.118V117.034H114.377V109.802H118.753V108.408Z" fill="#BDBDBD"/>
<path d="M153.39 121.115H132.728V141.719H153.39V121.115Z" fill="#BDBDBD"/>
<path d="M131.829 111.792H119.202L132.062 118.494H150.512L131.829 111.792Z" fill="#BDBDBD"/>
<path d="M104.212 102.021H100.452L108.871 106.418H116.457L104.212 102.021Z" fill="#BDBDBD"/>
<path d="M102.149 26.0112H78.4587V49.6338H102.149V26.0112Z" fill="#BDBDBD"/>
<path d="M100.236 89.2149L110.318 81.6006H104.379L97.5244 89.2315L100.236 89.2149Z" fill="#BDBDBD"/>
<path d="M111.499 73.1235L104.894 73.1567V79.7093H111.499V73.1235Z" fill="#BDBDBD"/>
<path d="M96.8256 88.286L102.998 80.3565V74.6831L96.8256 85.7147V88.286Z" fill="#BDBDBD"/>
<path d="M113.396 71.2162V81.2691L113.313 81.3188L109.303 84.0892V88.3359L125.341 81.2359V55.042L111.915 71.2328L113.396 71.2162Z" fill="#BDBDBD"/>
<path d="M127.038 83.6411L111.865 89.2316H124.193L149.198 83.6411H127.038Z" fill="#BDBDBD"/>
<path d="M154.622 54.4614H127.97V81.0368H154.622V54.4614Z" fill="#BDBDBD"/>
<path d="M101.85 52.2217H78.7748L85.0635 76.1595H95.5779L101.85 52.2217Z" fill="#BDBDBD"/>
<path d="M103.048 138.899L96.5594 117.848H84.0653L77.577 138.899H103.048Z" fill="#BDBDBD"/>
<path d="M103.43 141.487H77.2109V165.989H103.43V141.487Z" fill="#BDBDBD"/>
<path d="M61.1732 87.2241H68.6929L46.2667 76.9224H29.6466L61.1732 87.2241Z" fill="#BDBDBD"/>
<path d="M66.1642 137.82H64.3175V139.662H66.1642V137.82Z" fill="#BDBDBD"/>
<path d="M50.2428 91.521H47.6808V94.0757H50.2428V91.521Z" fill="#BDBDBD"/>
<path d="M113.396 50.0151H111.549V51.8565H113.396V50.0151Z" fill="#BDBDBD"/>
<path d="M132.728 92.7817H130.881V94.6231H132.728V92.7817Z" fill="#BDBDBD"/>
<path d="M90.3207 98.3056C91.0649 98.3056 91.6682 97.704 91.6682 96.9619C91.6682 96.2198 91.0649 95.6182 90.3207 95.6182C89.5764 95.6182 88.9731 96.2198 88.9731 96.9619C88.9731 97.704 89.5764 98.3056 90.3207 98.3056Z" fill="#BDBDBD"/>
</g>
<defs>
<clipPath id="clip0_18201_26">
<rect width="181" height="192" fill="white"/>
</clipPath>
</defs>
</svg>
