<svg width="221" height="361" viewBox="0 0 221 361" fill="none" xmlns="http://www.w3.org/2000/svg">
<path opacity="0.1" d="M86.9455 463.953C86.9455 461.489 92.7287 454.96 94.1636 454.96C94.892 454.96 100.719 461.481 100.719 463.953C98.9313 467.042 96.7184 469.789 94.1636 472.092C92.7069 472.092 86.9455 464.75 86.9455 463.953ZM199.201 463.953C200.597 460.069 203.181 456.878 206.485 454.96C207.213 454.96 212.997 461.481 212.997 463.953C211.211 467.028 209.014 469.774 206.485 472.092C205.028 472.092 199.201 464.75 199.201 463.953ZM142.687 463.953C142.687 461.489 148.514 454.96 149.971 454.96C150.699 454.96 156.483 461.481 156.483 463.953C154.703 467.034 152.506 469.78 149.971 472.092C148.514 472.092 142.687 464.75 142.687 463.953ZM79.6837 476.987H107.966C109.837 477.114 111.445 475.505 111.557 473.396C111.565 473.243 111.565 473.091 111.557 472.938V454.96C111.676 452.828 110.239 450.991 108.348 450.857C108.221 450.848 108.094 450.847 107.966 450.854C102.139 450.854 88.3877 451.675 79.6837 452.496C78.2508 452.334 76.9725 453.512 76.8285 455.128C76.8111 455.323 76.8111 455.52 76.8285 455.716V473.719C76.6845 475.334 77.7294 476.776 79.1623 476.938C79.3357 476.958 79.5103 476.958 79.6837 476.938M60.8554 465.571C60.8554 463.929 65.2256 459.05 65.954 459.05C66.6823 459.05 71.0525 463.978 71.0525 465.571C69.7466 468.099 68.0145 470.315 65.954 472.092C63.8934 470.315 62.1614 468.099 60.8554 465.571ZM116.663 463.929C116.663 462.286 121.033 457.358 121.71 457.358C122.388 457.358 126.809 462.286 126.809 463.929C125.51 466.462 123.777 468.679 121.71 470.45C119.667 468.668 117.952 466.453 116.663 463.929ZM163.723 477.817C165.601 477.967 167.231 476.373 167.364 474.255C167.376 474.074 167.376 473.892 167.364 473.71V454.081C167.511 451.979 166.118 450.14 164.253 449.975C164.077 449.959 163.899 449.959 163.723 449.975H136.198C134.324 449.819 132.694 451.406 132.556 453.519C132.544 453.706 132.544 453.894 132.556 454.081V473.71C132.431 475.838 133.859 477.676 135.746 477.817C135.896 477.828 136.047 477.828 136.198 477.817H163.723ZM220.215 476.996C221.653 477.184 222.955 476.023 223.123 474.401C223.144 474.193 223.146 473.984 223.128 473.776V455.757C223.267 454.131 222.21 452.687 220.769 452.531C220.584 452.511 220.399 452.513 220.215 452.537C211.533 451.667 197.759 450.895 191.932 450.895C190.04 450.791 188.431 452.436 188.339 454.57C188.333 454.714 188.333 454.858 188.341 455.001V472.979C188.23 475.089 189.656 476.902 191.527 477.028C191.662 477.038 191.797 477.038 191.932 477.028L220.215 476.996ZM239.036 465.579C237.746 468.103 236.032 470.319 233.988 472.101C231.922 470.33 230.189 468.113 228.89 465.579C228.89 463.937 233.26 459.058 233.988 459.058C234.717 459.058 239.036 463.986 239.036 465.579ZM183.25 463.937C181.958 466.476 180.223 468.694 178.152 470.458C176.091 468.68 174.359 466.465 173.053 463.937C173.053 462.294 177.423 457.366 178.152 457.366C178.88 457.366 183.25 462.294 183.25 463.937ZM109.401 84.9801H110.129C113.771 100.486 129.686 102.162 133.292 120.091L132.563 120.912C124.588 107.878 113.742 106.227 109.401 99.706C107.216 96.4208 107.216 92.3636 109.401 84.9965M136.198 294.083C136.198 319.404 117.377 330.845 97.7982 330.845C123.153 299.808 103.625 254.883 128.229 225.464C126.044 251.606 136.205 276.105 136.205 294.083M256.429 363.492C283.248 363.492 296.999 347.986 296.999 324.283C297.028 319.536 296.287 314.824 294.814 310.378C288.786 315.614 281.41 318.497 273.801 318.591C260.675 319.562 249.336 308.351 248.475 293.55C248.437 292.9 248.42 292.247 248.424 291.595C248.424 266.299 272.366 253.24 272.366 224.642C272.704 220.559 271.664 216.482 269.452 213.226C278.406 200.676 283.497 185.181 283.954 169.081C284.017 155.556 280.211 142.368 273.101 131.474L284.661 138.044C281.594 124.7 276.188 112.183 268.76 101.234C268.76 101.234 274.544 104.519 277.464 102.876C271.637 99.591 262.941 87.3701 262.941 65.2688C262.941 43.1676 258.571 30.9549 220.95 23.637C216.16 14.1321 209.45 6.03411 201.365 0C192.389 4.22981 183.679 9.14437 175.296 14.7095C175.296 14.7095 164.371 15.5308 160.059 15.5308C155.193 15.0161 150.356 14.1935 145.572 13.0669C139.691 13.7553 134.385 17.3503 131.085 22.8815C119.903 23.3768 108.767 24.749 97.7545 26.988C90.5364 28.6306 86.1953 35.1271 81.1186 49.0399L45.6617 71.018C39.1355 75.1245 34.7945 77.5884 34.7945 84.1588C35.7424 90.1334 37.9953 95.7477 41.3498 100.494C44.9406 124.994 48.5679 129.084 53.6227 129.084C55.0977 128.952 56.5599 128.678 57.9929 128.263C60.3437 131.493 62.3031 135.061 63.8199 138.874C57.9929 142.159 50.7748 134.767 42.0708 134.767C35.403 134.159 29.5599 139.76 29.02 147.279C29.0062 147.472 28.9959 147.665 28.9894 147.859C28.9894 151.144 30.4461 151.965 31.9028 151.965C34.0879 151.965 36.273 151.144 41.3716 151.144C47.8613 151.144 52.9308 157.715 63.0551 157.715C66.6969 157.715 68.882 156.893 70.3387 157.715C65.2912 161.764 62.3631 164.236 63.849 169.927C65.9321 180.497 74.6288 192.784 78.999 192.784C82.4486 192.419 85.8474 191.592 89.1233 190.32L84.7531 194.427C55.8078 222.22 62.2976 253.232 62.2976 284.277C62.2976 307.972 56.5144 322.681 39.842 322.681C24.8404 321.307 11.1051 312.663 2.19276 298.987C0.651933 305.099 -0.0842927 311.433 0.0076614 317.786C0.0076614 346.326 23.2134 365.134 46.4046 365.134C64.403 365.663 81.9411 358.682 95.6568 345.53C136.919 344.708 149.957 313.688 149.957 313.688C169.506 345.513 205.735 343.066 211.562 343.066C223.577 356.237 239.694 363.57 256.451 363.492M259.365 190.312C259.365 224.626 220.229 228.716 220.229 262.233C220.229 275.267 223.871 284.261 221.686 292.449C225.757 287.583 228.741 281.693 230.39 275.267C230.39 300.588 241.993 329.983 271.652 329.983C277.507 330.111 283.278 328.405 288.324 325.055C287.053 339.449 275.75 350.012 262.97 348.749C232.582 348.749 205.014 320.16 205.014 267.087C204.601 256.794 206.878 246.59 211.562 237.742C211.562 237.742 197.075 246.686 195.596 275.3C191.978 268.653 189.983 261.045 189.813 253.248C189.813 212.421 234.017 227.131 259.372 190.345M225.313 35.9402C252.11 42.5106 248.475 62.1068 253.552 75.9458C245.88 65.4939 236.845 56.4163 226.755 49.0235C227.612 44.6029 227.098 39.9848 225.299 35.9402M62.975 117.643C65.1154 116.89 67.3082 116.34 69.5303 116.001C70.8977 120.473 71.1496 125.283 70.2586 129.905C65.8352 129.776 62.3419 125.629 62.4561 120.641C62.4794 119.624 62.6548 118.619 62.975 117.668M78.2707 142.143C75.3572 147.054 73.1721 153.575 64.49 153.575C55.8078 153.575 48.546 146.183 42.7628 146.183C40.8227 146.358 38.8922 146.648 36.9796 147.054C35.5228 147.054 34.7945 146.183 34.7945 145.411C34.7945 142.948 37.7079 140.484 42.0344 140.484C46.9621 141.364 51.8104 142.739 56.5216 144.59C65.9321 147.875 71.7154 138.841 75.3426 135.556C78.5014 132.287 82.6589 130.521 86.9455 130.628C91.3134 130.652 95.5852 132.076 99.2622 134.735C93.0319 136.111 87.116 138.905 81.8761 142.948C79.691 142.126 78.9626 141.305 78.2342 142.126M86.2463 152.737C84.3538 154.968 81.6975 156.166 78.9626 156.023C78.1678 152.813 78.1678 149.418 78.9626 146.208C81.8761 146.208 86.2463 148.672 86.2463 152.779M39.8493 332.479C73.9005 332.446 73.1721 288.351 73.1721 273.641C73.1721 207.494 90.5801 191.109 131.128 169.886C161.559 153.575 189.084 147.062 189.084 114.35C189.084 102.934 186.171 90.6553 174.597 90.6553C177.427 94.265 178.982 98.9209 178.967 103.739C178.856 107.402 178.114 111.006 176.782 114.35C176.836 110.553 175.816 106.836 173.869 103.739C170.278 110.309 170.955 120.074 168.77 124.164C168.77 124.164 167.313 128.271 157.211 133.979C157.211 133.979 155.754 135.58 160.802 135.58C160.802 135.58 173.119 135.58 177.474 129.889C173.832 141.305 169.499 145.395 162.987 145.395C159.345 145.395 153.576 144.574 148.5 144.574C139.818 144.574 119.511 149.502 111.535 164.975C104.597 175.375 94.5838 182.627 83.311 185.417C78.2707 185.417 70.987 172.383 70.987 166.609C70.987 160.088 81.1841 164.145 89.0796 155.193C102.125 140.484 107.194 137.24 120.989 137.24C120.989 137.24 128.921 137.24 121.718 129.026L99.2549 105.357C97.3236 102.53 94.4316 100.743 91.2793 100.429C89.859 100.429 86.9091 101.25 80.4048 107.82C72.8111 108.112 65.375 110.342 58.6557 114.342C56.4706 115.984 55.0649 117.627 53.5572 117.627C51.3721 117.627 48.5096 104.543 48.5096 102.121C48.5096 95.5502 55.0649 91.4437 55.0649 87.4111C54.9986 85.9162 54.134 84.6163 52.8798 84.1259L43.4693 89.0537C43.4693 89.0537 38.3707 82.4833 44.1977 79.2392C44.1977 79.2392 58.6849 70.2459 86.2536 55.5446C87.6739 64.5379 89.8954 66.1559 96.3779 65.3346L93.4644 66.1559L92.0441 68.6198C95.7196 69.1404 99.452 68.5743 102.875 66.9772C106.517 65.3346 110.887 65.3346 111.579 64.5133C112.271 63.692 114.492 61.2281 114.492 60.4067C111.555 60.6727 108.643 61.2223 105.788 62.0494C110.159 58.7641 112.344 56.3002 112.344 54.6576C112.275 54.0322 112.018 53.4523 111.615 53.015C109.43 53.015 108.024 54.6576 105.832 53.8363C104.093 52.9734 102.956 51.0506 102.919 48.9085C102.919 47.2659 104.375 45.6233 109.474 45.6233H113.116C113.116 42.4038 105.832 40.6955 102.919 40.6955C98.3848 41.0242 93.9628 42.4233 89.9391 44.802C90.7282 40.3777 93.4299 36.693 97.1354 34.9875C110.49 31.9915 124.091 30.6148 137.705 30.881C163.796 30.881 183.33 56.2017 186.958 56.2017C188.414 56.2017 189.871 54.6002 187.686 52.9822C178.275 45.5905 172.492 39.8988 172.492 32.5564C172.492 30.0925 172.492 14.5781 202.21 8.86187C215.255 21.0993 219.596 30.0843 219.596 38.2809C219.596 52.1691 205.844 53.7871 204.358 59.5033C238.417 61.9672 263.778 112.617 263.778 137.938C263.778 183.66 225.379 202.467 201.481 208.159C236.232 178.765 249.269 149.354 249.269 128.92C249.269 95.4353 222.451 75.8062 215.961 71.7818C228.034 86.0866 234.772 105.074 234.782 124.821C235.253 140.94 229.424 156.479 218.838 167.324C221.257 162.009 222.506 156.116 222.48 150.142C222.475 147.68 222.23 145.226 221.752 142.824C207.92 179.701 176.039 205.022 173.847 236.034C171.882 229.179 170.898 222.015 170.933 214.811C170.992 199.145 176.147 184.048 185.421 172.383C157.182 194.41 150.648 219.731 150.648 239.336C150.691 251.249 153.169 262.991 157.888 273.65C156.704 263.864 156.951 253.926 158.617 244.23C161.929 279.655 180.322 311.047 207.92 328.381C148.522 328.381 123.896 248.321 148.522 197.679C107.216 209.916 102.147 258.135 101.44 285.879C99.0605 274.358 97.8388 262.572 97.7982 250.743C97.7982 200.923 134.763 187.889 162.288 173.976C202.821 153.575 219.508 137.248 219.508 107.829C219.508 76.8163 186.885 57.2119 162.994 62.9035L171.698 72.718C172.822 73.9154 174.041 74.9932 175.34 75.9375C200.636 90.6471 204.278 107.032 204.278 116.838C204.278 142.956 178.188 156.844 159.367 165.788C98.5047 195.207 87.652 208.29 87.652 250.743C87.652 281.78 95.6641 330.804 66.6386 334.894C68.8237 339 78.9699 340.586 78.9699 340.586C70.8202 348.061 60.4927 351.844 50.0027 351.197C39.8056 351.197 19.5716 347.977 13.7519 323.453C21.4507 329.337 30.5418 332.47 39.842 332.447M198.495 50.6415L200.68 52.2841C200.68 52.2841 213.725 45.7136 213.725 35.1024C213.686 31.8189 212.659 28.6477 210.812 26.1092C209.355 26.1092 209.355 29.3944 209.355 31.037C209.33 34.2619 206.992 36.8537 204.132 36.8258C203.944 36.824 203.757 36.8107 203.572 36.7861C199.267 36.5084 195.825 32.6457 195.56 27.7928C195.813 24.4096 196.55 21.0951 197.745 17.9783C197.745 17.5247 197.419 17.157 197.016 17.157C185.413 22.0848 184.7 27.7682 184.7 31.8665C184.7 37.5581 186.885 43.2826 198.451 50.625M58.663 84.1588C59.6068 85.9399 61.2122 87.1467 63.0332 87.444C66.1692 84.5551 68.245 80.4589 68.8602 75.9458C65.2183 76.8163 58.663 78.4097 58.663 84.1588ZM294.078 356.125L291.893 355.303C285.129 365.115 274.712 370.836 263.691 370.793L262.963 372.436C269.518 379.778 268.061 396.089 260.049 396.089C255.002 396.089 252.809 391.161 252.074 387.096L250.617 386.275C247.353 388.804 244.211 391.529 241.206 394.438C241.302 399.652 241.789 404.848 242.663 409.969H244.12C245.225 407.499 247.45 405.919 249.903 405.863C253.603 405.937 256.549 409.381 256.483 413.553C256.48 413.727 256.472 413.902 256.458 414.076C256.514 422.626 250.412 429.607 242.829 429.67C242.307 429.674 241.784 429.645 241.265 429.582C230.39 429.582 220.98 423.833 220.98 410.782C221.002 402.872 225.291 395.773 231.81 392.853V391.211C226.604 386.634 222.395 380.773 219.508 374.078H218.052C213.903 379.794 208.383 384.042 202.151 386.316V387.958C206.352 392.398 208.707 398.623 208.641 405.115C208.641 415.702 200.665 422.223 184.037 422.223C171.72 422.223 159.389 418.199 159.389 404.294C158.942 398.514 162.735 393.421 167.86 392.917C168.172 392.886 168.486 392.873 168.799 392.878C173.191 392.797 177.314 395.258 179.725 399.399H181.182C183.901 395.175 187.061 391.334 190.592 387.958V386.316C186.97 382.745 183.803 378.627 181.182 374.078H179.725C176.771 378.871 171.852 381.631 166.68 381.396C163.082 381.85 159.839 378.929 159.437 374.871C159.411 374.608 159.397 374.343 159.396 374.078C159.396 366.687 167.372 363.467 173.883 360.995V359.352C163.528 354.236 155.259 344.912 150.721 333.235H149.265C144.72 344.907 136.454 354.228 126.102 359.352V360.995C132.592 363.459 140.568 366.744 140.568 374.078C140.554 378.161 137.608 381.457 133.988 381.442C133.753 381.441 133.518 381.426 133.284 381.396C128.118 381.635 123.203 378.873 120.261 374.078H118.804C116.176 378.622 113.01 382.739 109.394 386.316V387.958C112.92 391.34 116.078 395.18 118.804 399.399H120.261C122.654 395.266 126.759 392.805 131.135 392.878C136.272 392.787 140.501 397.408 140.581 403.2C140.587 403.565 140.575 403.93 140.546 404.294C140.546 418.199 128.229 422.223 115.898 422.223C99.2622 422.223 91.2938 415.702 91.2938 405.115C91.2381 398.62 93.6002 392.397 97.8054 387.958V386.316C91.5658 384.041 86.0368 379.794 81.8761 374.078H80.4193C77.5313 380.77 73.3261 386.63 68.1245 391.211V392.853C74.6748 395.771 78.9842 402.898 78.999 410.84C78.999 423.923 69.5885 429.639 58.6922 429.639C51.1437 430.542 44.3755 424.374 43.5748 415.862C43.5208 415.288 43.4953 414.711 43.4984 414.133C43.1839 409.966 45.9247 406.301 49.6203 405.946C49.7645 405.932 49.909 405.923 50.0537 405.92C52.5209 405.966 54.7634 407.546 55.8807 410.027H57.301C58.1853 404.907 58.6727 399.711 58.7577 394.496C55.7527 391.587 52.6114 388.861 49.3472 386.332L47.8905 387.153C47.6107 391.984 44.1985 395.831 39.9149 396.147C31.9393 396.147 30.5044 379.836 37.0597 372.493L36.2075 370.793C25.172 370.839 14.7417 365.111 7.9687 355.287L5.7836 356.108L36.2075 434.534C36.2075 434.534 29.7177 437.82 31.1599 443.528C34.0734 454.968 42.7628 469.67 42.7628 487.656C42.7628 494.999 42.0344 495.795 42.0344 499.072C42.0344 502.349 44.2195 504 47.133 504H252.816C255.73 504 257.864 502.357 257.864 499.072C257.864 495.787 257.136 494.966 257.136 487.656C257.136 469.678 265.818 454.968 268.739 443.528C270.195 437.836 263.64 434.534 263.64 434.534L294.078 356.125ZM149.949 485.176C93.4353 485.176 55.8078 484.354 55.8078 484.354L47.7958 450.04C81.6622 444.962 115.772 442.219 149.935 441.827C184.097 442.219 218.207 444.962 252.074 450.04L244.12 484.379C244.12 484.379 206.47 485.2 149.957 485.2" fill="white"/>
</svg>
