<svg width="13" height="12" viewBox="0 0 13 12" fill="none" xmlns="http://www.w3.org/2000/svg">
<g clip-path="url(#clip0_18201_80)">
<path d="M6.49306 0.000488281C6.27797 0.000488281 6.06302 0.0120516 5.84915 0.0351032C5.65312 0.0551262 5.4595 0.0879641 5.26848 0.12781C5.23151 0.135544 5.19452 0.143703 5.15755 0.152238C4.03208 0.408483 3.00439 0.983921 2.19774 1.80955C2.12273 1.88644 2.04929 1.9656 1.97749 2.04702C-0.201524 4.5486 0.0599768 8.34297 2.56158 10.522C4.95654 12.6081 8.56157 12.4693 10.789 10.2052C10.8642 10.1283 10.9376 10.0492 11.0093 9.96775C11.9709 8.87263 12.5009 7.46479 12.5 6.00738C12.5 2.68984 9.81061 0.000463253 6.49306 0.000488281ZM2.46465 2.10989C2.49628 2.07706 2.52912 2.04562 2.56136 2.01378C2.5986 1.97714 2.63564 1.9403 2.67369 1.90486C2.70713 1.87362 2.74157 1.84359 2.77581 1.81315C2.81445 1.77891 2.85289 1.74467 2.89254 1.71163C2.92738 1.6822 2.96322 1.65397 2.99886 1.62554C3.03891 1.5935 3.07895 1.56146 3.1202 1.53063C3.15664 1.50319 3.19369 1.47656 3.23093 1.45053C3.27238 1.4209 3.31403 1.39046 3.35627 1.36283C3.39412 1.3372 3.43236 1.31237 3.47081 1.28775C3.51366 1.26031 3.55671 1.23328 3.60016 1.20765C3.63928 1.1843 3.67865 1.16133 3.71829 1.13877C3.76262 1.11355 3.80712 1.08892 3.85185 1.06489C3.89189 1.04354 3.93194 1.02264 3.97198 1.00222C4.01764 0.979191 4.06369 0.956965 4.10994 0.93514C4.14999 0.916118 4.19164 0.897096 4.23288 0.879076C4.27994 0.859052 4.32759 0.839029 4.37525 0.819006C4.4167 0.801987 4.45794 0.785368 4.49979 0.769349C4.54825 0.750928 4.5973 0.733708 4.64636 0.716488C4.68821 0.701871 4.73006 0.687255 4.77251 0.673439C4.82236 0.65742 4.87262 0.642603 4.92308 0.627986C4.96533 0.615772 5.00718 0.603158 5.04962 0.591744C5.06584 0.58754 5.08206 0.584136 5.09828 0.579931C4.5056 1.15542 4.06577 1.86964 3.81861 2.65792C3.34336 2.53258 2.88328 2.35553 2.44663 2.12992C2.45323 2.12291 2.45884 2.1159 2.46465 2.10989ZM2.17672 2.43226C2.65769 2.69287 3.16773 2.89585 3.69627 3.03696C3.43717 3.9379 3.30116 4.86975 3.292 5.80715H0.891235C0.93486 4.571 1.38691 3.38419 2.17672 2.43226ZM2.17672 9.5825C1.38696 8.63056 0.93491 7.44374 0.891235 6.20761H3.292C3.30116 7.14502 3.43714 8.07687 3.69627 8.97781C3.16776 9.11897 2.65772 9.32193 2.17672 9.5825ZM5.04842 11.4238C5.00798 11.4136 4.96613 11.4004 4.92448 11.3882C4.87382 11.3734 4.82296 11.3585 4.77291 11.3423C4.73066 11.3287 4.68901 11.3141 4.64736 11.2995C4.5981 11.2825 4.54885 11.265 4.50019 11.2464C4.45854 11.2306 4.4175 11.214 4.37625 11.1972C4.32839 11.1771 4.28054 11.1571 4.23308 11.1371C4.19224 11.1191 4.15159 11.1005 4.11114 11.0814C4.06449 11.0594 4.01804 11.037 3.97098 11.0138C3.93094 10.9937 3.89089 10.9737 3.85084 10.9519C3.80559 10.9277 3.76074 10.9028 3.71589 10.8772C3.67584 10.855 3.6378 10.8321 3.59915 10.8089C3.5551 10.7825 3.51185 10.7553 3.4686 10.7274C3.43056 10.7032 3.39252 10.6786 3.35507 10.6533C3.31242 10.6245 3.27018 10.5945 3.22833 10.5644C3.19168 10.5382 3.15504 10.512 3.119 10.4843C3.07755 10.4531 3.03691 10.4209 2.99646 10.3884C2.96102 10.3602 2.92578 10.3322 2.89114 10.3031C2.85109 10.2699 2.81245 10.2353 2.7736 10.2008C2.73956 10.1706 2.70532 10.1407 2.67209 10.1099C2.63384 10.0743 2.5968 10.0372 2.55956 10.0006C2.52732 9.96875 2.49448 9.93731 2.46284 9.90467C2.45704 9.89847 2.45143 9.89206 2.44563 9.88605C2.88225 9.66034 3.34233 9.48321 3.81761 9.35784C4.06482 10.1461 4.50462 10.8603 5.09728 11.4358C5.08106 11.4316 5.06464 11.4282 5.04842 11.4238ZM6.29286 11.598C5.43607 11.4763 4.685 10.5821 4.21246 9.26153C4.89565 9.10856 5.59283 9.02649 6.29286 9.01665V11.598ZM6.29286 8.61619C5.55025 8.62595 4.81077 8.71415 4.08672 8.87929C3.8353 8.01062 3.70267 7.11188 3.69246 6.20761H6.29286V8.61619ZM6.29286 5.80715H3.69246C3.70265 4.90289 3.83528 4.00415 4.08672 3.13548C4.81077 3.30059 5.55028 3.38879 6.29286 3.39858V5.80715ZM6.29286 2.99812C5.5928 2.98836 4.89565 2.90629 4.21246 2.75323C4.685 1.43271 5.43607 0.538483 6.29286 0.416743V2.99812ZM10.8095 2.43226C11.5992 3.38421 12.0513 4.57103 12.0949 5.80715H9.69418C9.68502 4.86975 9.54903 3.9379 9.28991 3.03696C9.81842 2.89577 10.3285 2.69282 10.8095 2.43226ZM7.93615 0.590743C7.9782 0.601155 8.02005 0.614371 8.0617 0.626585C8.11235 0.641402 8.16321 0.656219 8.21327 0.672437C8.25552 0.686053 8.29717 0.70067 8.33882 0.715287C8.38807 0.732306 8.43733 0.749727 8.48598 0.768348C8.52763 0.784166 8.56868 0.800785 8.60993 0.817605C8.65778 0.837628 8.70564 0.857651 8.75309 0.877674C8.79394 0.895695 8.83459 0.914241 8.87503 0.933338C8.92169 0.955363 8.96814 0.977789 9.01519 1.00102C9.05524 1.02104 9.09529 1.04106 9.13533 1.06289C9.18058 1.08712 9.22544 1.11194 9.27029 1.13757C9.31033 1.1598 9.34838 1.18263 9.38702 1.20585C9.43107 1.23228 9.47432 1.25951 9.51757 1.28735C9.55562 1.31157 9.59366 1.3362 9.6311 1.36143C9.67375 1.39026 9.7158 1.4201 9.75765 1.45013C9.79449 1.47636 9.83113 1.50279 9.86738 1.53023C9.90862 1.56126 9.94907 1.5935 9.98972 1.62594C10.025 1.65397 10.0604 1.682 10.095 1.71123C10.1351 1.74447 10.1737 1.77911 10.2126 1.81355C10.2466 1.84379 10.2809 1.87362 10.3141 1.90446C10.3523 1.9401 10.3894 1.97714 10.4266 2.01378C10.4589 2.04562 10.4917 2.07706 10.5233 2.10969C10.5291 2.1159 10.5347 2.12231 10.5406 2.12831C10.1039 2.35402 9.64384 2.53115 9.16857 2.65652C8.92089 1.86817 8.4805 1.15402 7.88729 0.57873C7.90351 0.582934 7.91993 0.586338 7.93615 0.590743ZM6.69332 0.416743C7.55011 0.538483 8.30117 1.43271 8.77372 2.75323C8.09053 2.90621 7.39335 2.98828 6.69332 2.99812V0.416743ZM6.69332 3.39858C7.43592 3.38882 8.1754 3.30062 8.89946 3.13548C9.15088 4.00415 9.2835 4.90289 9.29371 5.80715H6.69332V3.39858ZM6.69332 6.20761H9.29371C9.28353 7.11188 9.1509 8.01062 8.89946 8.87929C8.1754 8.71418 7.43592 8.62598 6.69332 8.61619V6.20761ZM6.69332 11.598V9.01665C7.39338 9.02641 8.09053 9.10848 8.77372 9.26153C8.30117 10.5821 7.55011 11.4763 6.69332 11.598ZM10.5215 9.90487C10.4899 9.93751 10.4573 9.96895 10.425 10.0008C10.3878 10.0374 10.3505 10.0745 10.3123 10.1101C10.279 10.1411 10.2448 10.1702 10.2108 10.2012C10.1719 10.2357 10.1333 10.2701 10.0936 10.3033C10.0586 10.3326 10.023 10.3608 9.98731 10.3892C9.94727 10.4213 9.90722 10.4533 9.86597 10.4841C9.82953 10.5116 9.79249 10.5382 9.75525 10.5642C9.7138 10.5939 9.67215 10.6243 9.6299 10.6519C9.59206 10.6776 9.55381 10.7024 9.51537 10.7268C9.47252 10.7545 9.42935 10.7812 9.38582 10.8069C9.34577 10.8303 9.30753 10.8532 9.26809 10.8758C9.22376 10.901 9.17918 10.9256 9.13433 10.9497C9.09429 10.971 9.05424 10.9919 9.01419 11.0124C8.96854 11.0354 8.92249 11.0576 8.87623 11.0794C8.83619 11.0984 8.79454 11.1175 8.75329 11.1355C8.70624 11.1555 8.65858 11.1755 8.61093 11.1956C8.56948 11.2124 8.52823 11.2292 8.48659 11.245C8.43773 11.2636 8.38867 11.2811 8.33942 11.2981C8.29777 11.3127 8.25612 11.3273 8.21387 11.3409C8.16381 11.3571 8.11376 11.372 8.0627 11.3866C8.02085 11.399 7.9788 11.4114 7.93655 11.4228C7.92033 11.427 7.90411 11.4304 7.8879 11.4346C8.48058 10.8591 8.92041 10.1449 9.16757 9.35664C9.64282 9.48199 10.1029 9.65904 10.5395 9.88465C10.5329 9.89186 10.5273 9.89887 10.5215 9.90487ZM10.8095 9.5825C10.3285 9.3219 9.81844 9.11892 9.28991 8.97781C9.54901 8.07687 9.68502 7.14502 9.69418 6.20761H12.0949C12.0513 7.44374 11.5993 8.63058 10.8095 9.5825Z" fill="black"/>
</g>
<defs>
<clipPath id="clip0_18201_80">
<rect width="12" height="12" fill="white" transform="translate(0.5)"/>
</clipPath>
</defs>
</svg>
